<svg xmlns="http://www.w3.org/2000/svg" width="1079" height="284" viewBox="0 0 1079 284" version="1.1"><path d="M 17 68.500 L 17 94 42.500 94 L 68 94 68 171.016 L 68 248.033 94.750 247.766 L 121.500 247.500 121.756 170.750 L 122.012 94 147.006 94 L 172 94 172 68.500 L 172 43 94.500 43 L 17 43 17 68.500 M 737 145.500 L 737 248 764 248 L 791 248 791 217.908 L 791 187.817 805.750 188.158 C 819.302 188.472, 820.864 188.704, 824.987 191.013 C 827.941 192.666, 830.334 195.059, 831.987 198.013 C 834.434 202.382, 834.508 203.099, 834.818 225.250 L 835.135 248 862.126 248 L 889.116 248 888.808 220.250 C 888.506 193.040, 888.452 192.403, 886.025 187.500 C 884.663 184.750, 881.265 180.140, 878.472 177.254 L 873.396 172.009 876.762 168.754 C 880.990 164.666, 886.690 153.185, 888.001 146.114 C 888.551 143.151, 889 130.213, 889 117.364 L 889 94 862 94 L 835 94 834.994 110.750 C 834.988 129.032, 834.248 133.363, 830.336 138.013 C 825.188 144.130, 821.063 145.414, 805.250 145.821 L 791 146.188 791 94.594 L 791 43 764 43 L 737 43 737 145.500 M 214.650 93.074 C 187.741 99.685, 166.178 120.376, 156.887 148.500 C 154.629 155.337, 154.566 156.580, 154.224 201.750 L 153.874 248 180.937 248 L 208 248 208.022 206.250 C 208.046 160.302, 207.973 160.905, 214.476 153.201 C 217.992 149.035, 225.860 145, 230.467 145 L 234 145 234 118 L 234 91 228.250 91.072 C 225.088 91.112, 218.967 92.013, 214.650 93.074 M 295.333 92.848 C 279.971 96.755, 263.490 106.834, 254.113 118.056 C 238.535 136.699, 232.222 157.544, 234.771 181.923 C 237.768 210.586, 252.129 233.760, 273.154 243.859 C 281.339 247.790, 293.688 251.034, 300.208 250.965 C 305.655 250.907, 318.129 248.349, 324.240 246.036 C 327.396 244.842, 333.272 241.502, 337.296 238.615 L 344.613 233.365 355.074 238.494 C 364.737 243.232, 366.435 243.724, 377.310 244.936 C 383.786 245.658, 389.328 246.005, 389.626 245.708 C 389.923 245.410, 385.468 227.917, 379.725 206.833 C 371.459 176.487, 369.473 167.955, 370.192 165.886 C 370.692 164.449, 374.903 159.418, 379.550 154.708 C 389.246 144.880, 389.701 143.321, 385.381 134.717 C 375.948 115.932, 359.686 101.834, 339.229 94.706 C 331.405 91.980, 329.048 91.631, 316.500 91.345 C 305.444 91.093, 300.993 91.409, 295.333 92.848 M 958.500 92.468 C 930.491 98.577, 907.988 119.915, 898.844 149.035 C 896.786 155.589, 896.504 158.452, 896.532 172.500 C 896.570 191.672, 897.865 197.710, 905.217 213 C 909.530 221.971, 911.447 224.682, 918.383 231.618 C 931.347 244.584, 944.978 250.434, 962 250.339 C 977.160 250.254, 991.313 245.452, 1001.004 237.106 L 1005.471 233.259 1015.041 240.630 L 1024.611 248 1040.305 248 L 1056 248 1055.965 206.250 C 1055.939 175.562, 1055.570 162.513, 1054.572 157 C 1047.578 118.369, 1014.547 90.800, 975.590 91.079 C 969.491 91.123, 961.800 91.748, 958.500 92.468 M 566.020 134.250 C 566.031 156.387, 566.488 177.650, 567.037 181.500 C 573.094 224.027, 612.914 255.171, 654.731 250.086 C 666.390 248.669, 672.687 246.738, 683 241.419 C 702.276 231.477, 716.030 215.056, 723.137 193.500 C 725.390 186.665, 725.452 185.411, 725.777 140.250 L 726.110 94 699.055 94 L 672 94 671.978 135.750 C 671.958 174.021, 671.804 177.835, 670.129 181.522 C 662.656 197.974, 640.790 201.885, 627.969 189.064 C 620.138 181.234, 620 180.274, 620 133.818 L 620 94 593 94 L 566 94 566.020 134.250 M 302.160 147.608 C 292.640 152.352, 287.021 163.083, 288.319 174.042 C 290.393 191.553, 310.184 202.069, 325.940 194.031 C 331.024 191.437, 337.641 183.954, 338.919 179.355 C 341.564 169.827, 339.255 159.064, 333.191 152.657 C 325.682 144.723, 312.314 142.548, 302.160 147.608 M 964.537 147.056 C 955.278 151.676, 950.026 160.252, 950.010 170.782 C 949.998 178.376, 951.878 183.236, 956.799 188.335 C 966.810 198.708, 982.101 199.597, 992.811 190.429 C 1006.723 178.522, 1004.100 155.710, 987.890 147.633 C 981.116 144.257, 970.666 143.999, 964.537 147.056" stroke="none" fill="#041b74" fill-rule="evenodd"/><path d="M 529.713 72.802 L 515.927 75.396 506.358 90.169 L 496.789 104.941 493.644 102.544 C 479.367 91.665, 454.713 88.017, 436.500 94.090 C 421.545 99.077, 407.461 111.846, 399.531 127.610 C 393.972 138.659, 394.151 141.521, 401.274 155.500 C 409.784 172.203, 409.747 173.987, 400.601 187.621 C 394.765 196.320, 394.721 198.717, 400.207 209.347 C 406.411 221.371, 420.141 234.876, 432.726 241.335 C 458.246 254.431, 486.858 253.766, 511.211 239.511 C 529.763 228.650, 544.174 208.823, 548.563 188.116 C 550.158 180.591, 550.397 154.063, 549.337 102.250 L 548.677 70 546.088 70.104 C 544.665 70.160, 537.296 71.375, 529.713 72.802 M 461 146.307 C 459.075 146.914, 455.167 149.734, 452.316 152.574 C 448.323 156.551, 446.752 159.044, 445.480 163.422 C 440.074 182.015, 456.505 199.943, 475.362 196.029 C 500.108 190.891, 503.608 157.401, 480.500 146.867 C 475.988 144.810, 466.604 144.541, 461 146.307" stroke="none" fill="#fc6c44" fill-rule="evenodd"/></svg>