<svg xmlns="http://www.w3.org/2000/svg" width="1079" height="284" viewBox="0 0 1079 284" version="1.1"><path d="M 529.713 72.802 L 515.927 75.396 506.358 90.169 L 496.789 104.941 493.644 102.544 C 479.367 91.665, 454.713 88.017, 436.500 94.090 C 421.545 99.077, 407.461 111.846, 399.531 127.610 C 393.972 138.659, 394.151 141.521, 401.274 155.500 C 409.784 172.203, 409.747 173.987, 400.601 187.621 C 394.765 196.320, 394.721 198.717, 400.207 209.347 C 406.411 221.371, 420.141 234.876, 432.726 241.335 C 458.246 254.431, 486.858 253.766, 511.211 239.511 C 529.763 228.650, 544.174 208.823, 548.563 188.116 C 550.158 180.591, 550.397 154.063, 549.337 102.250 L 548.677 70 546.088 70.104 C 544.665 70.160, 537.296 71.375, 529.713 72.802 M 461 146.307 C 459.075 146.914, 455.167 149.734, 452.316 152.574 C 448.323 156.551, 446.752 159.044, 445.480 163.422 C 440.074 182.015, 456.505 199.943, 475.362 196.029 C 500.108 190.891, 503.608 157.401, 480.500 146.867 C 475.988 144.810, 466.604 144.541, 461 146.307" stroke="none" fill="#fc6c44" fill-rule="evenodd"/><path d="M 17 68.500 L 17 94 42.500 94 L 68 94 68 171 L 68 248 95 248 L 122 248 122 171 L 122 94 147 94 L 172 94 172 68.500 L 172 43 94.500 43 L 17 43 17 68.500 M 737 145.500 L 737 248 764 248 L 791 248 791 218 L 791 188 803.341 188 C 817.839 188, 823.810 189.454, 828.674 194.169 C 834.069 199.398, 835 204.329, 835 227.682 L 835 248 862.057 248 L 889.114 248 888.807 219.750 C 888.456 187.423, 888.509 187.648, 878.753 177.333 L 873.728 172.019 877.793 167.609 C 887.343 157.249, 888.966 150.091, 888.985 118.250 L 889 94 862 94 L 835 94 835 110.318 C 835 130.107, 833.799 135.366, 828.227 139.975 C 822.731 144.520, 816.492 146, 802.818 146 L 791 146 791 94.500 L 791 43 764 43 L 737 43 737 145.500 M 214 93.034 C 184.989 100.475, 161.568 125.001, 155.580 154.208 C 154.284 160.532, 154 169.645, 154 204.958 L 154 248 180.969 248 L 207.938 248 208.219 205.750 C 208.475 167.272, 208.662 163.174, 210.316 159.850 C 214.247 151.952, 223.731 145.069, 230.750 145.022 L 234 145 234 118 L 234 91 227.750 91.055 C 224.313 91.085, 218.125 91.976, 214 93.034 M 294.500 92.951 C 266.267 100.378, 244.981 121.301, 236.764 149.701 C 233.632 160.530, 233.684 184.446, 236.867 196.500 C 240.278 209.413, 247.052 221.996, 255.226 230.601 C 263.462 239.271, 270.440 243.788, 281.510 247.615 C 288.272 249.952, 291.114 250.375, 300 250.367 C 315.695 250.353, 327.754 246.414, 339.461 237.478 L 344.263 233.812 354.882 238.802 C 364.556 243.348, 366.545 243.904, 377.254 245.059 C 383.719 245.755, 389.302 246.031, 389.661 245.672 C 390.021 245.313, 385.744 228.242, 380.157 207.737 C 374.571 187.233, 370 169.229, 370 167.729 C 370 165.661, 372.176 162.717, 379 155.554 C 386.911 147.250, 388 145.672, 388 142.513 C 388 135.484, 379.311 122.224, 367.443 111.140 C 358.500 102.788, 346.091 96.135, 333.590 92.990 C 323.055 90.339, 304.499 90.321, 294.500 92.951 M 956.145 92.900 C 926.600 100.367, 902.126 126.645, 896.930 156.480 C 895.012 167.497, 896.235 188.555, 899.417 199.307 C 905.818 220.931, 917.871 236.053, 935.441 244.504 C 956.508 254.637, 982.336 252.013, 1000.656 237.879 L 1005.943 233.801 1014.943 240.901 L 1023.943 248 1040.035 248 L 1056.127 248 1055.755 202.250 C 1055.400 158.450, 1055.289 156.188, 1053.167 149.171 C 1045.258 123.031, 1026.806 103.671, 1001.229 94.678 C 993.271 91.880, 991.219 91.584, 978 91.325 C 966.466 91.100, 961.996 91.422, 956.145 92.900 M 566.246 139.250 C 566.691 190.798, 566.688 190.778, 575.762 208.461 C 579.535 215.813, 582.182 219.282, 589.950 227.050 C 597.776 234.876, 601.166 237.455, 608.726 241.335 C 634.187 254.401, 662.950 253.760, 687.044 239.587 C 704.209 229.490, 716.037 214.458, 723.306 193.500 C 725.276 187.821, 725.406 185.001, 725.748 140.750 L 726.109 94 699.054 94 L 672 94 672 134.634 C 672 162.886, 671.642 176.464, 670.824 179.193 C 670.177 181.352, 667.922 185.079, 665.813 187.475 C 653.677 201.263, 632.362 198.911, 623.436 182.801 L 620.500 177.500 620.199 135.750 L 619.899 94 592.877 94 L 565.856 94 566.246 139.250 M 304.355 146.447 C 299.857 148.404, 293.181 154.725, 290.909 159.179 C 284.659 171.430, 289.625 186.669, 302.079 193.453 C 306.542 195.884, 308.648 196.399, 314 196.368 C 321.637 196.324, 326.272 194.556, 331.770 189.589 C 337.604 184.319, 340.358 177.241, 339.770 169.030 C 339.512 165.430, 338.551 161.032, 337.633 159.258 C 335.246 154.641, 329.370 149.072, 324.601 146.906 C 319.680 144.672, 308.992 144.429, 304.355 146.447 M 965.399 146.906 C 960.630 149.072, 954.754 154.641, 952.367 159.258 C 951.449 161.032, 950.488 165.430, 950.230 169.030 C 949.642 177.241, 952.396 184.319, 958.230 189.589 C 963.728 194.556, 968.363 196.324, 976 196.368 C 981.352 196.399, 983.458 195.884, 987.921 193.453 C 1000.403 186.653, 1005.342 171.431, 999.060 159.119 C 996.503 154.106, 988.744 147.301, 984.123 146.017 C 978.433 144.437, 969.950 144.840, 965.399 146.906" stroke="none" fill="#fcfcfc" fill-rule="evenodd"/></svg>